<mxfile host="app.diagrams.net" modified="2023-12-01T16:57:30.675Z" agent="Mozilla/5.0 (X11; Linux x86_64) AppleWebKit/537.36 (KHTML, like Gecko) Chrome/118.0.0.0 Safari/537.36" version="22.1.5" etag="U-l13JWf3Z6sVXaw2Lxn" type="github">
  <diagram name="Page-1" id="KCHzOpN6QnkvCy_mCQl8">
    <mxGraphModel>
      <root>
        <mxCell id="0" />
        <mxCell id="1" parent="0" />
      </root>
    </mxGraphModel>
  </diagram>
</mxfile>
